<?xml version="1.0" encoding="utf-8"?>
<!-- Generator: Adobe Illustrator 16.0.0, SVG Export Plug-In . SVG Version: 6.00 Build 0)  -->
<!DOCTYPE svg PUBLIC "-//W3C//DTD SVG 1.1//EN" "http://www.w3.org/Graphics/SVG/1.1/DTD/svg11.dtd">
<svg version="1.1" id="Layer_1" xmlns="http://www.w3.org/2000/svg" xmlns:xlink="http://www.w3.org/1999/xlink" x="0px" y="0px"
	 width="266.893px" height="266.895px" viewBox="0 0 266.893 266.895" enable-background="new 0 0 266.893 266.895"
	 xml:space="preserve">
<radialGradient id="SVGID_1_" cx="-288.2009" cy="-308.7522" r="131.3655" gradientTransform="matrix(0 -1.982 -1.8439 0 -497.8825 -286.6215)" gradientUnits="userSpaceOnUse">
	<stop  offset="0" style="stop-color:#FFDD55"/>
	<stop  offset="0.1" style="stop-color:#FFDD55"/>
	<stop  offset="0.5" style="stop-color:#FF543E"/>
	<stop  offset="1" style="stop-color:#C837AB"/>
</radialGradient>
<path fill="url(#SVGID_1_)" d="M133.056,1.641c-54.855,0-70.897,0.055-74.015,0.314C47.783,2.892,40.779,4.664,33.147,8.464
	c-5.882,2.919-10.52,6.306-15.097,11.05c-8.336,8.655-13.389,19.3-15.219,31.956c-0.888,6.144-1.148,7.397-1.2,38.78
	c-0.02,10.46,0,24.229,0,42.694c0,54.81,0.061,70.835,0.324,73.948c0.91,10.954,2.627,17.846,6.264,25.386
	c6.953,14.429,20.23,25.263,35.873,29.305c5.416,1.393,11.397,2.161,19.079,2.525c3.252,0.141,36.417,0.241,69.602,0.241
	c33.185,0,66.37-0.039,69.543-0.201c8.893-0.419,14.056-1.111,19.766-2.588c15.744-4.062,28.779-14.732,35.873-29.363
	c3.566-7.358,5.376-14.513,6.193-24.894c0.178-2.264,0.253-38.352,0.253-74.393c0-36.048-0.081-72.069-0.259-74.333
	c-0.829-10.549-2.637-17.645-6.319-25.142c-3.022-6.138-6.377-10.721-11.246-15.408c-8.694-8.301-19.324-13.354-31.991-15.181
	c-6.138-0.888-7.361-1.151-38.768-1.204H133.056z"/>
<radialGradient id="SVGID_2_" cx="116.3523" cy="12.218" r="131.3652" gradientTransform="matrix(0.1739 0.8687 3.5818 -0.7172 -106.3943 -71.7498)" gradientUnits="userSpaceOnUse">
	<stop  offset="0" style="stop-color:#3771C8"/>
	<stop  offset="0.128" style="stop-color:#3771C8"/>
	<stop  offset="1" style="stop-color:#6600FF;stop-opacity:0"/>
</radialGradient>
<path fill="url(#SVGID_2_)" d="M133.056,1.641c-54.855,0-70.897,0.055-74.015,0.314C47.783,2.892,40.779,4.664,33.147,8.464
	c-5.882,2.919-10.52,6.306-15.097,11.05c-8.336,8.655-13.389,19.3-15.219,31.956c-0.888,6.144-1.148,7.397-1.2,38.78
	c-0.02,10.46,0,24.229,0,42.694c0,54.81,0.061,70.835,0.324,73.948c0.91,10.954,2.627,17.846,6.264,25.386
	c6.953,14.429,20.23,25.263,35.873,29.305c5.416,1.393,11.397,2.161,19.079,2.525c3.252,0.141,36.417,0.241,69.602,0.241
	c33.185,0,66.37-0.039,69.543-0.201c8.893-0.419,14.056-1.111,19.766-2.588c15.744-4.062,28.779-14.732,35.873-29.363
	c3.566-7.358,5.376-14.513,6.193-24.894c0.178-2.264,0.253-38.352,0.253-74.393c0-36.048-0.081-72.069-0.259-74.333
	c-0.829-10.549-2.637-17.645-6.319-25.142c-3.022-6.138-6.377-10.721-11.246-15.408c-8.694-8.301-19.324-13.354-31.991-15.181
	c-6.138-0.888-7.361-1.151-38.768-1.204H133.056z"/>
<path fill="#FFFFFF" d="M132.995,35.998c-26.346,0-29.652,0.115-40,0.586c-10.328,0.472-17.378,2.108-23.546,4.506
	c-6.38,2.479-11.792,5.792-17.184,11.187c-5.396,5.392-8.71,10.804-11.197,17.183c-2.404,6.169-4.042,13.221-4.506,23.545
	c-0.463,10.348-0.584,13.655-0.584,40.001c0,26.346,0.116,29.643,0.586,39.99c0.474,10.326,2.11,17.376,4.506,23.543
	c2.481,6.381,5.795,11.793,11.189,17.185c5.39,5.396,10.801,8.72,17.178,11.196c6.172,2.4,13.224,4.034,23.549,4.508
	c10.348,0.47,13.652,0.587,39.996,0.587c26.348,0,29.644-0.117,39.992-0.587c10.325-0.474,17.384-2.107,23.555-4.508
	c6.379-2.477,11.783-5.8,17.173-11.196c5.396-5.392,8.712-10.804,11.196-17.183c2.387-6.169,4.022-13.221,4.508-23.543
	c0.464-10.348,0.586-13.646,0.586-39.992c0-26.346-0.122-29.652-0.586-40c-0.485-10.328-2.121-17.378-4.508-23.545
	c-2.484-6.381-5.801-11.792-11.196-17.185c-5.396-5.396-10.792-8.71-17.179-11.187c-6.184-2.398-13.237-4.034-23.565-4.506
	c-10.346-0.472-13.642-0.586-39.996-0.586H132.995z M124.292,53.478c2.583-0.004,5.465,0,8.704,0c25.9,0,28.971,0.093,39.198,0.559
	c9.46,0.432,14.594,2.013,18.012,3.341c4.527,1.757,7.754,3.858,11.149,7.255c3.395,3.395,5.496,6.627,7.259,11.155
	c1.328,3.417,2.909,8.55,3.339,18.008c0.466,10.227,0.566,13.298,0.566,39.187c0,25.89-0.101,28.961-0.566,39.188
	c-0.432,9.458-2.011,14.591-3.339,18.008c-1.759,4.525-3.864,7.75-7.259,11.143c-3.397,3.395-6.62,5.497-11.149,7.255
	c-3.414,1.335-8.552,2.911-18.012,3.344c-10.226,0.464-13.298,0.566-39.198,0.566c-25.904,0-28.973-0.103-39.2-0.566
	c-9.458-0.437-14.591-2.018-18.014-3.346c-4.525-1.758-7.76-3.86-11.155-7.255c-3.395-3.395-5.497-6.621-7.259-11.149
	c-1.328-3.416-2.911-8.549-3.341-18.007c-0.464-10.228-0.559-13.299-0.559-39.205c0-25.904,0.095-28.961,0.559-39.187
	c0.432-9.459,2.013-14.591,3.341-18.011c1.759-4.528,3.864-7.761,7.259-11.157c3.395-3.395,6.629-5.497,11.155-7.259
	c3.42-1.334,8.556-2.909,18.014-3.344c8.95-0.404,12.418-0.527,30.497-0.546V53.478z M184.778,69.587
	c-6.428,0-11.641,5.207-11.641,11.637c0,6.426,5.213,11.641,11.641,11.641c6.427,0,11.641-5.214,11.641-11.641
	c0-6.428-5.214-11.641-11.641-11.641V69.587z M132.995,83.188c-27.513,0-49.818,22.306-49.818,49.818
	c0,27.511,22.306,49.807,49.818,49.807s49.809-22.296,49.809-49.807c0-27.512-22.298-49.818-49.811-49.818H132.995z M132.995,100.67
	c17.857,0,32.336,14.477,32.336,32.336c0,17.857-14.479,32.336-32.336,32.336c-17.859,0-32.336-14.479-32.336-32.336
	C100.659,115.147,115.136,100.67,132.995,100.67z"/>
</svg>
